<svg version="1.1" id="Layer_1" xmlns="http://www.w3.org/2000/svg" xmlns:xlink="http://www.w3.org/1999/xlink" x="0px" y="0px"
	 width="100%" viewBox="0 0 421 419" enable-background="new 0 0 421 419" xml:space="preserve">
<path fill="#010102" opacity="1.000000" stroke="none" 
	d="
M0.999998,197.000000 
	C1.000000,131.683640 1.000000,66.367264 1.000000,1.025450 
	C141.279907,1.025450 281.559845,1.025450 421.919861,1.025450 
	C421.919861,140.576950 421.919861,280.153961 421.919861,419.865479 
	C281.666748,419.865479 141.333389,419.865479 1.000021,419.872009 
	C1.000000,347.897003 1.000000,275.915466 1.182656,202.985962 
	C2.234380,202.375229 3.103449,202.712524 3.948734,203.425568 
	C4.203575,204.487030 4.482200,205.172745 4.678593,206.180634 
	C7.045621,211.117218 10.363892,214.441360 16.427547,214.414062 
	C17.836531,214.488678 18.883192,214.376419 20.211372,214.418076 
	C28.100428,212.415329 31.639000,208.587402 32.309799,201.627579 
	C32.387753,200.721252 32.347084,200.104446 32.588219,199.259308 
	C33.314793,198.546234 33.671612,197.903336 34.217224,197.599960 
	C47.535652,190.194534 61.154861,183.283875 72.167847,172.356125 
	C74.135300,170.403885 77.046257,169.402496 79.659332,167.881912 
	C75.001488,163.225189 70.547173,162.404343 65.316559,165.302536 
	C56.015182,170.456284 46.858349,175.870209 37.585724,181.076767 
	C32.124649,184.143173 26.898420,188.331406 19.542633,185.556152 
	C18.117277,185.587128 17.071178,185.757935 15.773051,185.723450 
	C12.817493,187.073013 10.113964,188.627869 7.279805,190.224152 
	C7.149176,190.265579 7.156734,190.539551 6.847046,190.606506 
	C5.589095,192.467743 4.785399,194.364822 3.619570,196.004379 
	C3.169595,196.637192 1.897520,196.685425 0.999998,197.000000 
M35.899746,272.533478 
	C35.899746,272.533478 36.203564,272.930023 36.314011,273.692505 
	C37.651882,280.627106 42.484505,285.515320 48.659859,286.180389 
	C55.633053,286.931366 61.332161,283.809387 64.112228,277.715546 
	C66.875916,271.657623 65.309174,265.546875 60.447891,260.400177 
	C58.759953,258.613129 57.414429,255.707321 57.376274,253.289368 
	C57.164944,239.896744 58.709190,226.435989 53.806183,213.389252 
	C52.625645,210.247879 53.205536,206.444946 52.963509,202.758408 
	C46.459194,205.233765 44.674366,209.725998 44.705669,215.630173 
	C44.771820,228.105728 44.507805,240.582703 44.486626,253.059280 
	C44.481327,256.182892 43.637936,258.360413 41.172985,260.717529 
	C38.753216,263.031494 37.807140,266.886566 35.906582,270.465088 
	C35.933998,270.631165 35.961418,270.797241 35.754391,271.182709 
	C35.653202,271.534851 35.730354,271.821106 35.899746,272.533478 
M32.654881,171.665268 
	C38.661697,168.452606 44.679340,165.259979 50.671818,162.020798 
	C55.255249,159.543243 61.889950,158.398560 57.778564,150.733475 
	C61.817940,150.126984 65.217484,149.453201 68.649498,149.161575 
	C70.759911,148.982239 73.270096,148.727219 74.997078,149.643723 
	C82.472404,153.610886 89.887337,157.743546 97.015816,162.298691 
	C104.928246,167.354782 113.223610,164.529449 121.820351,164.199966 
	C120.133110,161.610443 118.190910,159.560608 115.853073,158.181366 
	C104.693886,151.597961 93.362862,145.303925 82.256767,138.634171 
	C80.193977,137.395370 77.903778,135.127197 77.409309,132.950089 
	C75.951309,126.530602 72.371941,122.498985 66.136673,121.060440 
	C59.652401,119.564453 53.856609,122.041122 50.446838,127.223259 
	C46.924450,132.576553 47.120453,138.768448 50.965439,144.486847 
	C51.729961,145.623856 52.412552,146.815948 53.430717,148.464951 
	C40.877052,149.310394 32.358768,156.974228 22.989714,162.662262 
	C17.502306,165.993729 16.557055,171.931519 19.695818,178.784286 
	C23.487270,176.496918 27.229570,174.239197 31.520000,171.963257 
	C31.659964,171.845657 31.799925,171.728043 32.654881,171.665268 
M198.556381,218.768616 
	C198.785065,220.958099 197.083832,224.171463 201.465912,224.135834 
	C208.609802,224.077759 215.762527,224.219025 222.889542,223.850723 
	C224.068634,223.789795 225.899857,221.674347 226.099075,220.313568 
	C226.544510,217.270798 224.265091,216.511124 221.589828,216.544815 
	C216.906738,216.603821 212.222366,216.561279 207.538528,216.561279 
	C207.540237,215.719849 207.541931,214.878403 207.543640,214.036972 
	C210.679153,214.036972 213.818069,214.130402 216.949432,214.016281 
	C222.395432,213.817795 223.625977,211.626953 221.190170,206.676727 
	C220.924591,206.136993 220.632034,205.610550 220.251633,204.887054 
	C221.046326,204.453857 221.579712,203.952301 222.166718,203.878738 
	C225.052307,203.517181 226.775146,202.357071 226.312408,199.051331 
	C225.824234,195.563965 223.371780,195.569473 220.769638,195.596863 
	C214.783554,195.659851 208.796036,195.768387 202.811157,195.694046 
	C199.407623,195.651779 198.020264,197.013245 198.188690,200.483597 
	C198.470444,206.289230 198.459015,212.109100 198.556381,218.768616 
M185.141373,209.435303 
	C189.354004,202.594315 187.894333,197.176224 180.488998,195.867661 
	C174.209702,194.758072 167.596924,195.335327 161.150772,195.611221 
	C160.296204,195.647781 158.921295,198.289001 158.868179,199.762894 
	C158.622833,206.571640 158.900574,213.398376 158.697296,220.209885 
	C158.602600,223.382584 159.946106,224.291351 162.806595,224.243118 
	C168.456665,224.147812 174.181854,224.724472 179.730591,223.963379 
	C182.598022,223.570053 186.039246,221.494553 187.620773,219.115280 
	C189.487595,216.306793 188.392563,212.676880 185.141373,209.435303 
M332.268585,207.658783 
	C332.271301,211.988190 332.448547,216.326874 332.218567,220.643890 
	C332.050903,223.791275 333.341217,224.776947 336.277893,224.684525 
	C340.102997,224.564133 343.935822,224.717178 347.765076,224.697418 
	C358.423218,224.642395 361.846710,222.245621 363.996399,211.914703 
	C365.578735,204.310349 361.163971,196.265244 352.990723,195.275162 
	C348.908600,194.780655 344.783203,194.477493 340.672607,194.418396 
	C331.516754,194.286789 331.143463,194.795807 332.247620,203.715164 
	C332.369415,204.699341 332.267059,205.711304 332.268585,207.658783 
M389.985687,214.199127 
	C392.019104,217.616943 389.212494,217.123825 387.515259,217.025696 
	C382.584961,216.740646 377.667023,216.241699 372.873383,215.837540 
	C371.082428,221.628326 372.126007,224.470718 376.084106,224.622726 
	C382.074860,224.852798 388.095215,224.961411 394.074768,224.623062 
	C398.667542,224.363174 400.781433,220.810837 401.703705,216.784363 
	C402.622955,212.770950 400.807892,209.291550 397.378296,207.603867 
	C394.396240,206.136444 390.775452,205.940811 387.419342,205.271225 
	C385.865112,204.961121 384.269104,204.860397 382.692017,204.664749 
	C382.729614,204.076004 382.767242,203.487244 382.804840,202.898483 
	C386.693787,202.898483 390.743286,202.222198 394.424652,203.096313 
	C397.833710,203.905746 400.111511,203.939255 400.651245,200.250809 
	C401.186646,196.591980 399.436615,194.262299 395.386383,194.276291 
	C391.053986,194.291260 386.717896,194.161072 382.389801,194.297089 
	C374.818634,194.535019 373.298370,198.047546 372.341919,203.434219 
	C371.527252,208.022339 375.722198,212.824036 380.908325,213.687683 
	C383.608643,214.137344 386.430542,213.857208 389.985687,214.199127 
M265.195038,222.570526 
	C264.953400,221.953690 264.828156,221.252289 264.451324,220.733688 
	C261.905731,217.230560 261.634460,214.407669 263.612305,209.798645 
	C266.907501,202.119781 264.654388,194.785919 254.054230,194.536865 
	C249.244537,194.423843 244.427078,194.667664 239.615692,194.590515 
	C236.366287,194.538422 235.321747,195.965652 235.410950,199.139145 
	C235.601837,205.927704 235.568451,212.726974 235.435059,219.518112 
	C235.380219,222.309937 235.391449,224.321762 239.165146,224.338837 
	C242.733551,224.354965 244.510651,223.321335 244.265320,219.550888 
	C244.183945,218.300339 244.549988,217.020691 244.693863,215.892441 
	C249.600540,214.349426 252.405853,216.016403 254.517654,220.291000 
	C256.852661,225.017365 259.614899,225.542862 265.195038,222.570526 
M89.846008,248.829819 
	C83.646378,246.743774 77.446739,244.657730 71.267891,242.578690 
	C69.896385,249.452469 71.385948,252.509705 78.170509,256.540192 
	C88.729362,262.812836 99.223976,269.196869 109.871826,275.314331 
	C112.603981,276.884033 113.805473,278.665497 114.229698,281.839661 
	C115.358032,290.282074 123.568504,296.186218 131.417480,294.675568 
	C139.952576,293.032776 145.416138,284.819672 143.539291,276.453339 
	C141.731354,268.394104 132.972534,263.542877 124.524063,265.402618 
	C122.118217,265.932251 118.977112,265.538544 116.822510,264.370483 
	C107.923492,259.546082 99.273788,254.261749 89.846008,248.829819 
M144.441284,198.076508 
	C136.546066,193.153702 128.244064,192.986038 120.480148,197.606674 
	C114.433678,201.205154 115.131279,207.832077 115.973755,213.828857 
	C116.841064,220.002441 120.342926,223.566101 126.426193,223.924667 
	C134.040009,224.373444 142.995102,226.618591 146.967422,217.368683 
	C149.569473,211.309540 149.822037,204.381104 144.441284,198.076508 
M103.012764,212.350922 
	C107.469025,205.528488 106.144745,197.003555 99.610863,195.908813 
	C92.326530,194.688339 84.680099,195.629059 77.109009,195.629059 
	C77.109009,205.301422 77.109009,214.220490 77.109009,223.476059 
	C79.561348,223.476059 81.779274,223.476059 84.305115,223.476059 
	C84.561905,220.616150 84.807175,217.884430 85.030029,215.402390 
	C90.520012,214.026886 94.228050,215.203018 96.334778,220.312698 
	C98.271820,225.010803 101.937614,224.272125 105.475082,223.190247 
	C104.396500,219.542908 103.426125,216.261520 103.012764,212.350922 
M88.171440,120.628723 
	C86.121582,122.095200 84.071732,123.561668 81.966652,125.067650 
	C82.837929,126.175415 83.063622,126.687767 83.455971,126.928482 
	C94.910278,133.955872 106.329628,141.042969 117.882080,147.905869 
	C121.182190,149.866348 124.169350,147.913055 124.281090,143.835266 
	C124.417542,138.855774 122.415291,134.810974 117.996933,132.192352 
	C112.859657,129.147675 107.786110,125.983734 102.541458,123.135704 
	C98.315506,120.840866 93.949860,118.579750 88.171440,120.628723 
M81.253777,270.435211 
	C79.590637,269.347107 77.986237,268.153046 76.252724,267.191833 
	C71.992737,264.829620 69.211189,266.553375 69.149178,271.509094 
	C69.092216,276.062439 71.071098,279.550842 74.932312,281.837250 
	C81.488449,285.719452 88.033653,289.639008 94.762444,293.205170 
	C101.011810,296.517212 106.229988,294.997009 111.127388,288.462982 
	C101.339226,282.555786 91.611397,276.684967 81.253777,270.435211 
M22.685574,253.678314 
	C25.253790,255.674835 27.726564,257.826080 30.479006,259.523956 
	C30.969055,259.826202 33.569756,258.277191 33.593719,257.531525 
	C34.021751,244.213043 34.241398,230.887070 34.404968,217.561478 
	C34.439865,214.718704 32.431664,213.582153 30.028284,214.346756 
	C25.945959,215.645493 21.931993,217.882553 21.846516,222.671295 
	C21.666054,232.781418 22.120337,242.902878 22.685574,253.678314 
M302.208405,203.604172 
	C305.003601,199.237656 304.320740,195.477798 300.562073,195.400162 
	C291.603119,195.215134 282.637787,195.340515 273.784088,195.340515 
	C271.866272,203.682434 271.872345,203.530457 279.845123,203.848648 
	C281.079346,203.897888 283.129822,205.983688 283.253998,207.276459 
	C283.682068,211.732651 283.652527,216.270035 283.354034,220.746933 
	C283.119598,224.263443 285.431458,225.452835 287.791443,225.209213 
	C289.892242,224.992325 293.101593,224.922546 292.706909,220.655716 
	C292.194519,215.115891 292.581757,209.492859 292.581757,203.774979 
	C296.034576,203.774979 298.731842,203.774979 302.208405,203.604172 
M149.581696,263.965302 
	C157.535873,259.439789 165.490036,254.914261 173.444199,250.388733 
	C173.209930,249.841003 172.975647,249.293259 172.741379,248.745529 
	C162.122116,249.458069 150.953003,246.010147 141.228638,253.488922 
	C138.942856,255.246857 134.646423,255.361847 135.696960,259.925781 
	C136.338776,262.714050 141.817978,265.668732 145.580383,265.250977 
	C146.697952,265.126892 147.765274,264.550232 149.581696,263.965302 
M133.396378,131.879150 
	C126.368622,139.895279 126.480484,146.600830 133.352631,154.285141 
	C134.708099,155.800812 135.664017,158.318573 135.591187,160.330276 
	C135.447250,164.306244 136.802963,165.850601 140.722137,165.375488 
	C142.195236,165.196945 143.718246,165.273666 145.204971,165.397003 
	C148.128159,165.639511 149.262589,164.553070 149.472916,161.458862 
	C149.607529,159.478836 150.763168,157.036453 152.273651,155.772171 
	C159.508224,149.716827 161.110825,141.096619 155.879181,134.263519 
	C150.314087,126.994896 141.974945,125.910835 133.396378,131.879150 
M159.223190,154.876770 
	C159.172775,157.344147 158.864471,159.846313 159.190430,162.262924 
	C159.334259,163.329239 160.689926,164.964600 161.625824,165.059799 
	C164.977737,165.400787 168.385437,165.193420 171.760071,165.193420 
	C171.736862,157.991165 166.138092,153.256058 159.223190,154.876770 
M312.128387,215.713837 
	C314.614502,215.721939 317.108551,215.608551 319.584686,215.769821 
	C322.488464,215.958923 323.754913,215.004700 323.766968,211.862457 
	C323.779938,208.486786 322.020905,208.075241 319.365326,208.166656 
	C316.385406,208.269257 313.390228,208.341522 310.418213,208.158615 
	C306.485657,207.916595 306.111267,210.434570 306.404663,213.229919 
	C306.725311,216.284714 308.689453,216.800415 312.128387,215.713837 
z"/>
<path fill="#ADC1D4" opacity="1.000000" stroke="none" 
	d="
M3.972519,203.049805 
	C3.103449,202.712524 2.234380,202.375229 1.182656,202.518982 
	C1.000000,201.285645 1.000000,199.571289 0.999998,197.428467 
	C1.897520,196.685425 3.169595,196.637192 3.619570,196.004379 
	C4.785399,194.364822 5.589095,192.467743 6.831085,190.956665 
	C6.074048,195.176498 5.023284,199.113159 3.972519,203.049805 
z"/>
<path fill="#C2CDDB" opacity="1.000000" stroke="none" 
	d="
M30.971869,171.981476 
	C27.229570,174.239197 23.487270,176.496918 19.695818,178.784286 
	C16.557055,171.931519 17.502306,165.993729 22.989714,162.662262 
	C32.358768,156.974228 40.877052,149.310394 53.430717,148.464951 
	C52.412552,146.815948 51.729961,145.623856 50.965439,144.486847 
	C47.120453,138.768448 46.924450,132.576553 50.446838,127.223259 
	C53.856609,122.041122 59.652401,119.564453 66.136673,121.060440 
	C72.371941,122.498985 75.951309,126.530602 77.409309,132.950089 
	C77.903778,135.127197 80.193977,137.395370 82.256767,138.634171 
	C93.362862,145.303925 104.693886,151.597961 115.853073,158.181366 
	C118.190910,159.560608 120.133110,161.610443 121.820351,164.199966 
	C113.223610,164.529449 104.928246,167.354782 97.015816,162.298691 
	C89.887337,157.743546 82.472404,153.610886 74.997078,149.643723 
	C73.270096,148.727219 70.759911,148.982239 68.649498,149.161575 
	C65.217484,149.453201 61.817940,150.126984 57.778564,150.733475 
	C61.889950,158.398560 55.255249,159.543243 50.671818,162.020798 
	C44.679340,165.259979 38.661697,168.452606 32.358437,171.315918 
	C34.269650,169.542664 36.404762,167.987289 38.699535,166.721313 
	C44.028316,163.781525 49.538048,161.151535 54.723476,157.985016 
	C55.794846,157.330765 56.630543,153.876022 56.116074,153.442261 
	C53.355148,151.114487 50.025211,148.630493 46.248413,150.616379 
	C38.935024,154.461868 31.705719,158.522339 24.751568,162.977600 
	C19.682081,166.225388 18.834463,170.290176 21.093933,175.876312 
	C24.383261,174.579346 27.677565,173.280411 30.971869,171.981476 
M71.481407,131.684372 
	C70.701263,130.623932 70.085632,129.370773 69.110703,128.538528 
	C65.949829,125.840218 62.296768,125.155075 58.539272,127.032051 
	C54.582981,129.008301 52.797821,132.408813 53.333305,136.841583 
	C53.853516,141.147919 56.650124,143.951584 60.580444,144.587387 
	C63.255856,145.020187 66.219513,143.671143 69.103134,143.885727 
	C70.993225,145.047974 72.850166,146.268692 74.779060,147.362518 
	C83.940331,152.557526 93.122551,157.715591 102.294434,162.891922 
	C105.644539,164.782608 114.828789,164.165634 117.716583,161.726242 
	C117.067818,161.186615 116.505348,160.566742 115.815254,160.167389 
	C104.226280,153.460739 92.538712,146.917999 81.090874,139.979446 
	C78.844429,138.617874 77.435959,135.804321 75.792152,133.550217 
	C75.081894,132.576248 74.755707,131.322159 74.019577,129.665344 
	C73.119987,130.767944 72.606499,131.397308 71.481407,131.684372 
M58.000000,150.500000 
	C57.799999,150.366669 57.599998,150.233337 57.400002,150.100006 
	C57.433334,150.400009 57.466667,150.699997 58.000000,150.500000 
z"/>
<path fill="#CEDFE9" opacity="1.000000" stroke="none" 
	d="
M198.563690,218.345795 
	C198.459015,212.109100 198.470444,206.289230 198.188690,200.483597 
	C198.020264,197.013245 199.407623,195.651779 202.811157,195.694046 
	C208.796036,195.768387 214.783554,195.659851 220.769638,195.596863 
	C223.371780,195.569473 225.824234,195.563965 226.312408,199.051331 
	C226.775146,202.357071 225.052307,203.517181 222.166718,203.878738 
	C221.579712,203.952301 221.046326,204.453857 220.251633,204.887054 
	C220.632034,205.610550 220.924591,206.136993 221.190170,206.676727 
	C223.625977,211.626953 222.395432,213.817795 216.949432,214.016281 
	C213.818069,214.130402 210.679153,214.036972 207.543640,214.036972 
	C207.541931,214.878403 207.540237,215.719849 207.538528,216.561279 
	C212.222366,216.561279 216.906738,216.603821 221.589828,216.544815 
	C224.265091,216.511124 226.544510,217.270798 226.099075,220.313568 
	C225.899857,221.674347 224.068634,223.789795 222.889542,223.850723 
	C215.762527,224.219025 208.609802,224.077759 201.465912,224.135834 
	C197.083832,224.171463 198.785065,220.958099 198.563690,218.345795 
z"/>
<path fill="#DBE5ED" opacity="1.000000" stroke="none" 
	d="
M185.292694,209.837372 
	C188.392563,212.676880 189.487595,216.306793 187.620773,219.115280 
	C186.039246,221.494553 182.598022,223.570053 179.730591,223.963379 
	C174.181854,224.724472 168.456665,224.147812 162.806595,224.243118 
	C159.946106,224.291351 158.602600,223.382584 158.697296,220.209885 
	C158.900574,213.398376 158.622833,206.571640 158.868179,199.762894 
	C158.921295,198.289001 160.296204,195.647781 161.150772,195.611221 
	C167.596924,195.335327 174.209702,194.758072 180.488998,195.867661 
	C187.894333,197.176224 189.354004,202.594315 185.292694,209.837372 
M166.205170,215.513016 
	C168.837891,218.864807 177.809769,218.887726 181.206802,215.551346 
	C178.282455,212.868301 170.934662,212.446091 166.205170,215.513016 
M174.292191,206.898407 
	C176.251266,206.087875 178.210342,205.277344 180.169418,204.466812 
	C178.131836,203.598877 176.095749,202.727402 174.053467,201.870667 
	C173.912354,201.811478 173.712265,201.820343 173.561478,201.867523 
	C171.074936,202.645264 166.418121,199.952911 166.507675,204.590286 
	C166.586823,208.689285 170.968277,206.293839 174.292191,206.898407 
z"/>
<path fill="#BFDDEA" opacity="1.000000" stroke="none" 
	d="
M332.268616,207.184570 
	C332.267059,205.711304 332.369415,204.699341 332.247620,203.715164 
	C331.143463,194.795807 331.516754,194.286789 340.672607,194.418396 
	C344.783203,194.477493 348.908600,194.780655 352.990723,195.275162 
	C361.163971,196.265244 365.578735,204.310349 363.996399,211.914703 
	C361.846710,222.245621 358.423218,224.642395 347.765076,224.697418 
	C343.935822,224.717178 340.102997,224.564133 336.277893,224.684525 
	C333.341217,224.776947 332.050903,223.791275 332.218567,220.643890 
	C332.448547,216.326874 332.271301,211.988190 332.268616,207.184570 
M353.105682,215.793213 
	C356.234558,212.525467 356.220795,207.814331 353.759399,205.541016 
	C351.098572,203.083557 346.321167,202.917847 341.993103,201.609253 
	C341.542755,206.682816 340.982605,210.299744 341.043274,213.906250 
	C341.062164,215.028839 342.718475,217.014679 343.699890,217.062164 
	C346.567841,217.200958 349.473480,216.561310 353.105682,215.793213 
z"/>
<path fill="#B1D4E5" opacity="1.000000" stroke="none" 
	d="
M389.591614,214.052933 
	C386.430542,213.857208 383.608643,214.137344 380.908325,213.687683 
	C375.722198,212.824036 371.527252,208.022339 372.341919,203.434219 
	C373.298370,198.047546 374.818634,194.535019 382.389801,194.297089 
	C386.717896,194.161072 391.053986,194.291260 395.386383,194.276291 
	C399.436615,194.262299 401.186646,196.591980 400.651245,200.250809 
	C400.111511,203.939255 397.833710,203.905746 394.424652,203.096313 
	C390.743286,202.222198 386.693787,202.898483 382.804840,202.898483 
	C382.767242,203.487244 382.729614,204.076004 382.692017,204.664749 
	C384.269104,204.860397 385.865112,204.961121 387.419342,205.271225 
	C390.775452,205.940811 394.396240,206.136444 397.378296,207.603867 
	C400.807892,209.291550 402.622955,212.770950 401.703705,216.784363 
	C400.781433,220.810837 398.667542,224.363174 394.074768,224.623062 
	C388.095215,224.961411 382.074860,224.852798 376.084106,224.622726 
	C372.126007,224.470718 371.082428,221.628326 372.873383,215.837540 
	C377.667023,216.241699 382.584961,216.740646 387.515259,217.025696 
	C389.212494,217.123825 392.019104,217.616943 389.591614,214.052933 
z"/>
<path fill="#EEF2F5" opacity="1.000000" stroke="none" 
	d="
M3.948735,203.425568 
	C5.023284,199.113159 6.074048,195.176498 7.140773,190.889709 
	C7.156734,190.539551 7.149176,190.265579 7.623752,190.195129 
	C10.740579,188.726013 13.382830,187.327377 16.025080,185.928726 
	C17.071178,185.757935 18.117277,185.587128 19.731586,185.900330 
	C24.724997,189.221664 28.711500,187.639877 32.756241,185.327194 
	C43.815914,179.003525 54.915035,172.747894 66.044579,166.547974 
	C69.498726,164.623795 72.992691,163.854462 76.430260,167.767700 
	C68.213280,173.937729 60.506378,180.096222 52.401310,185.676407 
	C47.246040,189.225693 41.418148,191.783890 36.068996,195.074448 
	C34.502613,196.038010 33.543732,197.989136 32.306412,199.487625 
	C32.347084,200.104446 32.387753,200.721252 32.016003,201.837189 
	C30.010218,208.561157 25.079239,211.519547 19.929855,214.264175 
	C18.883192,214.376419 17.836531,214.488678 16.254795,214.085815 
	C12.066755,210.999939 8.413789,208.429199 4.760824,205.858459 
	C4.482200,205.172745 4.203575,204.487030 3.948735,203.425568 
M8.123677,199.657959 
	C8.061609,200.105957 7.999542,200.553970 7.482225,201.249893 
	C7.822001,201.864990 8.161777,202.480087 8.850478,203.709213 
	C10.552320,205.521927 12.254161,207.334641 14.006979,209.707657 
	C14.669354,209.815292 15.331730,209.922928 16.739824,209.878342 
	C17.496340,209.939636 18.252853,210.000946 19.301300,210.507614 
	C19.889912,210.102783 20.478525,209.697968 21.636658,208.885605 
	C29.592999,203.452438 29.718887,197.624481 21.936361,190.312820 
	C20.950480,190.228943 19.964598,190.145081 18.333817,190.232315 
	C17.896578,190.174744 17.459339,190.117172 16.642567,189.545380 
	C15.077071,190.324188 13.511577,191.102997 11.646307,192.483963 
	C10.602448,193.959976 9.558591,195.435989 7.999669,197.010422 
	C7.979070,197.673203 7.958472,198.335983 8.123677,199.657959 
z"/>
<path fill="#D1E4ED" opacity="1.000000" stroke="none" 
	d="
M265.176697,222.914139 
	C259.614899,225.542862 256.852661,225.017365 254.517654,220.291000 
	C252.405853,216.016403 249.600540,214.349426 244.693863,215.892441 
	C244.549988,217.020691 244.183945,218.300339 244.265320,219.550888 
	C244.510651,223.321335 242.733551,224.354965 239.165146,224.338837 
	C235.391449,224.321762 235.380219,222.309937 235.435059,219.518112 
	C235.568451,212.726974 235.601837,205.927704 235.410950,199.139145 
	C235.321747,195.965652 236.366287,194.538422 239.615692,194.590515 
	C244.427078,194.667664 249.244537,194.423843 254.054230,194.536865 
	C264.654388,194.785919 266.907501,202.119781 263.612305,209.798645 
	C261.634460,214.407669 261.905731,217.230560 264.451324,220.733688 
	C264.828156,221.252289 264.953400,221.953690 265.176697,222.914139 
M255.429276,202.415466 
	C252.292511,202.239838 249.142502,201.839584 246.026871,202.023026 
	C245.069916,202.079346 243.507416,203.717056 243.486099,204.659225 
	C243.461899,205.728531 244.759705,207.660080 245.650711,207.763000 
	C248.415619,208.082382 251.361572,208.100113 254.020111,207.404694 
	C254.982742,207.152893 255.331467,204.554108 255.429276,202.415466 
z"/>
<path fill="#C2CDDB" opacity="1.000000" stroke="none" 
	d="
M90.189240,248.988129 
	C99.273788,254.261749 107.923492,259.546082 116.822510,264.370483 
	C118.977112,265.538544 122.118217,265.932251 124.524063,265.402618 
	C132.972534,263.542877 141.731354,268.394104 143.539291,276.453339 
	C145.416138,284.819672 139.952576,293.032776 131.417480,294.675568 
	C123.568504,296.186218 115.358032,290.282074 114.229698,281.839661 
	C113.805473,278.665497 112.603981,276.884033 109.871826,275.314331 
	C99.223976,269.196869 88.729362,262.812836 78.170509,256.540192 
	C71.385948,252.509705 69.896385,249.452469 71.267891,242.578690 
	C77.446739,244.657730 83.646378,246.743774 90.189240,248.988129 
M126.667648,270.532684 
	C125.417992,270.957306 124.168335,271.381927 122.881187,271.077393 
	C122.391205,270.355316 122.064415,269.299347 121.384033,268.966797 
	C117.714966,267.173401 113.381416,266.260254 110.337471,263.755035 
	C100.351555,255.536453 88.973701,250.283859 76.808380,246.461487 
	C75.891968,246.173569 74.270241,246.383774 73.764961,247.004425 
	C73.212875,247.682556 73.191528,249.310257 73.635887,250.159271 
	C74.281334,251.392517 75.381752,252.582108 76.581444,253.300552 
	C87.804993,260.021820 99.047844,266.713806 110.385773,273.239410 
	C113.776024,275.190704 116.381508,277.190643 116.124397,281.653107 
	C116.029732,283.295959 117.127068,285.007477 117.842300,287.178070 
	C118.539253,283.157410 119.080086,280.037384 119.831429,277.770782 
	C119.423729,284.535339 121.973587,288.288910 127.471397,289.017395 
	C132.858444,289.731232 137.086594,286.959747 138.166443,281.659058 
	C139.391312,275.646515 135.310379,272.699219 131.377121,269.470001 
	C132.134964,269.048706 132.892792,268.627380 133.650635,268.206085 
	C133.589615,267.948334 133.528610,267.690613 133.467590,267.432861 
	C130.455032,267.432861 127.442482,267.432861 123.251785,267.432861 
	C125.223694,268.759430 126.118706,269.361511 126.667648,270.532684 
z"/>
<path fill="#DBE5ED" opacity="1.000000" stroke="none" 
	d="
M144.697418,198.323990 
	C149.822037,204.381104 149.569473,211.309540 146.967422,217.368683 
	C142.995102,226.618591 134.040009,224.373444 126.426193,223.924667 
	C120.342926,223.566101 116.841064,220.002441 115.973755,213.828857 
	C115.131279,207.832077 114.433678,201.205154 120.480148,197.606674 
	C128.244064,192.986038 136.546066,193.153702 144.697418,198.323990 
M140.349197,209.495972 
	C140.011932,202.550812 138.994827,201.679749 131.322632,201.765594 
	C125.113342,201.835052 123.186707,203.689499 123.155525,209.626633 
	C123.127075,215.043945 125.178764,217.332703 130.314316,217.612564 
	C138.128372,218.038376 139.856155,216.793671 140.349197,209.495972 
z"/>
<path fill="#DBE5ED" opacity="1.000000" stroke="none" 
	d="
M102.734261,212.665527 
	C103.426125,216.261520 104.396500,219.542908 105.475082,223.190247 
	C101.937614,224.272125 98.271820,225.010803 96.334778,220.312698 
	C94.228050,215.203018 90.520012,214.026886 85.030029,215.402390 
	C84.807175,217.884430 84.561905,220.616150 84.305115,223.476059 
	C81.779274,223.476059 79.561348,223.476059 77.109009,223.476059 
	C77.109009,214.220490 77.109009,205.301422 77.109009,195.629059 
	C84.680099,195.629059 92.326530,194.688339 99.610863,195.908813 
	C106.144745,197.003555 107.469025,205.528488 102.734261,212.665527 
M92.265717,201.429962 
	C90.780701,201.433685 89.142342,201.045074 87.852882,201.549118 
	C86.505699,202.075699 84.430832,203.641800 84.565041,204.432526 
	C84.817810,205.921844 86.171112,207.823334 87.540443,208.372330 
	C89.246017,209.056122 91.656830,209.094589 93.346512,208.399307 
	C95.129395,207.665680 96.421661,205.739746 97.928253,204.334686 
	C96.325043,203.355835 94.721832,202.376984 92.265717,201.429962 
z"/>
<path fill="#C2CDDB" opacity="1.000000" stroke="none" 
	d="
M36.214340,270.065308 
	C37.807140,266.886566 38.753216,263.031494 41.172985,260.717529 
	C43.637936,258.360413 44.481327,256.182892 44.486626,253.059280 
	C44.507805,240.582703 44.771820,228.105728 44.705669,215.630173 
	C44.674366,209.725998 46.459194,205.233765 52.963509,202.758408 
	C53.205536,206.444946 52.625645,210.247879 53.806183,213.389252 
	C58.709190,226.435989 57.164944,239.896744 57.376274,253.289368 
	C57.414429,255.707321 58.759953,258.613129 60.447891,260.400177 
	C65.309174,265.546875 66.875916,271.657623 64.112228,277.715546 
	C61.332161,283.809387 55.633053,286.931366 48.659859,286.180389 
	C42.484505,285.515320 37.651882,280.627106 36.591740,273.306427 
	C38.272568,271.951233 39.675671,270.982117 41.203182,270.376709 
	C41.349007,271.239441 41.330276,271.744019 41.397980,272.236664 
	C42.170097,277.855438 46.334660,281.518524 51.484993,281.123932 
	C56.416431,280.746155 60.415905,276.271179 60.219833,271.350677 
	C59.995106,265.710938 56.565445,262.519196 50.484386,262.276611 
	C49.662659,262.243835 48.843067,262.157471 48.097488,261.748596 
	C48.502682,261.049957 48.923862,260.341522 49.149872,260.399109 
	C56.217896,262.199951 55.119118,257.214111 55.127087,253.219055 
	C55.154724,239.357376 56.090622,225.420593 52.024311,211.876373 
	C51.703133,210.806564 50.771732,209.171921 50.068043,209.142639 
	C49.046932,209.100143 47.445942,210.053955 47.042400,210.991699 
	C46.351994,212.596115 46.183807,214.515610 46.169525,216.305756 
	C46.084831,226.918900 45.085781,237.660004 46.385883,248.110291 
	C47.646481,258.243042 40.508175,263.210083 36.214340,270.065308 
z"/>
<path fill="#E5EAEE" opacity="1.000000" stroke="none" 
	d="
M88.501625,120.452126 
	C93.949860,118.579750 98.315506,120.840866 102.541458,123.135704 
	C107.786110,125.983734 112.859657,129.147675 117.996933,132.192352 
	C122.415291,134.810974 124.417542,138.855774 124.281090,143.835266 
	C124.169350,147.913055 121.182190,149.866348 117.882080,147.905869 
	C106.329628,141.042969 94.910278,133.955872 83.455971,126.928482 
	C83.063622,126.687767 82.837929,126.175415 81.966652,125.067650 
	C84.071732,123.561668 86.121582,122.095200 88.501625,120.452126 
z"/>
<path fill="#E5EAEE" opacity="1.000000" stroke="none" 
	d="
M81.568665,270.624695 
	C91.611397,276.684967 101.339226,282.555786 111.127388,288.462982 
	C106.229988,294.997009 101.011810,296.517212 94.762444,293.205170 
	C88.033653,289.639008 81.488449,285.719452 74.932312,281.837250 
	C71.071098,279.550842 69.092216,276.062439 69.149178,271.509094 
	C69.211189,266.553375 71.992737,264.829620 76.252724,267.191833 
	C77.986237,268.153046 79.590637,269.347107 81.568665,270.624695 
z"/>
<path fill="#E5EAEE" opacity="1.000000" stroke="none" 
	d="
M22.499893,253.348999 
	C22.120337,242.902878 21.666054,232.781418 21.846516,222.671295 
	C21.931993,217.882553 25.945959,215.645493 30.028284,214.346756 
	C32.431664,213.582153 34.439865,214.718704 34.404968,217.561478 
	C34.241398,230.887070 34.021751,244.213043 33.593719,257.531525 
	C33.569756,258.277191 30.969055,259.826202 30.479006,259.523956 
	C27.726564,257.826080 25.253790,255.674835 22.499893,253.348999 
z"/>
<path fill="#BAD8E6" opacity="1.000000" stroke="none" 
	d="
M301.818756,203.689575 
	C298.731842,203.774979 296.034576,203.774979 292.581757,203.774979 
	C292.581757,209.492859 292.194519,215.115891 292.706909,220.655716 
	C293.101593,224.922546 289.892242,224.992325 287.791443,225.209213 
	C285.431458,225.452835 283.119598,224.263443 283.354034,220.746933 
	C283.652527,216.270035 283.682068,211.732651 283.253998,207.276459 
	C283.129822,205.983688 281.079346,203.897888 279.845123,203.848648 
	C271.872345,203.530457 271.866272,203.682434 273.784088,195.340515 
	C282.637787,195.340515 291.603119,195.215134 300.562073,195.400162 
	C304.320740,195.477798 305.003601,199.237656 301.818756,203.689575 
z"/>
<path fill="#F9FCFC" opacity="1.000000" stroke="none" 
	d="
M41.078773,270.013000 
	C39.675671,270.982117 38.272568,271.951233 36.536514,272.925171 
	C36.203564,272.930023 35.899746,272.533478 36.027756,272.018005 
	C36.100124,271.322815 36.044483,271.143066 35.988838,270.963318 
	C35.961418,270.797241 35.933998,270.631165 36.060463,270.265198 
	C40.508175,263.210083 47.646481,258.243042 46.385883,248.110291 
	C45.085781,237.660004 46.084831,226.918900 46.169525,216.305756 
	C46.183807,214.515610 46.351994,212.596115 47.042400,210.991699 
	C47.445942,210.053955 49.046932,209.100143 50.068043,209.142639 
	C50.771732,209.171921 51.703133,210.806564 52.024311,211.876373 
	C56.090622,225.420593 55.154724,239.357376 55.127087,253.219055 
	C55.119118,257.214111 56.217896,262.199951 49.149872,260.399109 
	C48.923862,260.341522 48.502682,261.049957 47.765175,261.872925 
	C43.318264,263.306824 41.420433,266.022797 41.078773,270.013000 
z"/>
<path fill="#E5EAEE" opacity="1.000000" stroke="none" 
	d="
M149.218658,264.073120 
	C147.765274,264.550232 146.697952,265.126892 145.580383,265.250977 
	C141.817978,265.668732 136.338776,262.714050 135.696960,259.925781 
	C134.646423,255.361847 138.942856,255.246857 141.228638,253.488922 
	C150.953003,246.010147 162.122116,249.458069 172.741379,248.745529 
	C172.975647,249.293259 173.209930,249.841003 173.444199,250.388733 
	C165.490036,254.914261 157.535873,259.439789 149.218658,264.073120 
z"/>
<path fill="#E5EAEE" opacity="1.000000" stroke="none" 
	d="
M31.245934,171.972366 
	C27.677565,173.280411 24.383261,174.579346 21.093933,175.876312 
	C18.834463,170.290176 19.682081,166.225388 24.751568,162.977600 
	C31.705719,158.522339 38.935024,154.461868 46.248413,150.616379 
	C50.025211,148.630493 53.355148,151.114487 56.116074,153.442261 
	C56.630543,153.876022 55.794846,157.330765 54.723476,157.985016 
	C49.538048,161.151535 44.028316,163.781525 38.699535,166.721313 
	C36.404762,167.987289 34.269650,169.542664 32.000942,171.288513 
	C31.799925,171.728043 31.659964,171.845657 31.245934,171.972366 
z"/>
<path fill="#ADC1D4" opacity="1.000000" stroke="none" 
	d="
M133.663391,131.644699 
	C141.974945,125.910835 150.314087,126.994896 155.879181,134.263519 
	C161.110825,141.096619 159.508224,149.716827 152.273651,155.772171 
	C150.763168,157.036453 149.607529,159.478836 149.472916,161.458862 
	C149.262589,164.553070 148.128159,165.639511 145.204971,165.397003 
	C143.718246,165.273666 142.195236,165.196945 140.722137,165.375488 
	C136.802963,165.850601 135.447250,164.306244 135.591187,160.330276 
	C135.664017,158.318573 134.708099,155.800812 133.352631,154.285141 
	C126.480484,146.600830 126.368622,139.895279 133.663391,131.644699 
M135.005661,136.217560 
	C135.466293,136.274261 135.926910,136.330948 136.281006,137.188477 
	C133.235306,143.553772 134.442413,149.065826 139.393768,151.402435 
	C144.710526,153.911469 149.566742,151.504883 152.648926,144.863220 
	C152.767456,144.607819 153.149902,144.474915 153.782425,145.056320 
	C152.752106,147.217529 152.213242,149.890289 150.597702,151.442352 
	C146.071716,155.790497 140.648468,153.569794 136.042297,152.127274 
	C137.021637,156.199081 137.901306,159.856537 138.796173,163.577118 
	C141.383347,163.577118 143.965195,163.577118 146.482040,163.577118 
	C147.611908,157.506271 147.611908,157.506271 152.647247,152.862106 
	C158.146927,147.789673 157.407928,136.775070 151.121246,133.005432 
	C145.380920,127.814621 137.563004,129.001831 133.000000,135.938828 
	C129.680176,140.769455 129.892303,146.830414 132.840118,149.750397 
	C133.289108,145.607132 133.795563,140.933502 135.005661,136.217560 
z"/>
<path fill="#ADC1D4" opacity="1.000000" stroke="none" 
	d="
M32.588219,199.259308 
	C33.543732,197.989136 34.502613,196.038010 36.068996,195.074448 
	C41.418148,191.783890 47.246040,189.225693 52.401310,185.676407 
	C60.506378,180.096222 68.213280,173.937729 76.430260,167.767700 
	C72.992691,163.854462 69.498726,164.623795 66.044579,166.547974 
	C54.915035,172.747894 43.815914,179.003525 32.756241,185.327194 
	C28.711500,187.639877 24.724997,189.221664 20.110844,186.040146 
	C26.898420,188.331406 32.124649,184.143173 37.585724,181.076767 
	C46.858349,175.870209 56.015182,170.456284 65.316559,165.302536 
	C70.547173,162.404343 75.001488,163.225189 79.659332,167.881912 
	C77.046257,169.402496 74.135300,170.403885 72.167847,172.356125 
	C61.154861,183.283875 47.535652,190.194534 34.217224,197.599960 
	C33.671612,197.903336 33.314793,198.546234 32.588219,199.259308 
z"/>
<path fill="#BAD8E6" opacity="1.000000" stroke="none" 
	d="
M159.409149,154.571121 
	C166.138092,153.256058 171.736862,157.991165 171.760071,165.193420 
	C168.385437,165.193420 164.977737,165.400787 161.625824,165.059799 
	C160.689926,164.964600 159.334259,163.329239 159.190430,162.262924 
	C158.864471,159.846313 159.172775,157.344147 159.409149,154.571121 
z"/>
<path fill="#ADC1D4" opacity="1.000000" stroke="none" 
	d="
M311.712524,215.719574 
	C308.689453,216.800415 306.725311,216.284714 306.404663,213.229919 
	C306.111267,210.434570 306.485657,207.916595 310.418213,208.158615 
	C313.390228,208.341522 316.385406,208.269257 319.365326,208.166656 
	C322.020905,208.075241 323.779938,208.486786 323.766968,211.862457 
	C323.754913,215.004700 322.488464,215.958923 319.584686,215.769821 
	C317.108551,215.608551 314.614502,215.721939 311.712524,215.719574 
z"/>
<path fill="#ADC1D4" opacity="1.000000" stroke="none" 
	d="
M20.211372,214.418076 
	C25.079239,211.519547 30.010218,208.561157 31.897377,202.126678 
	C31.639000,208.587402 28.100428,212.415329 20.211372,214.418076 
z"/>
<path fill="#ADC1D4" opacity="1.000000" stroke="none" 
	d="
M4.678591,206.180634 
	C8.413789,208.429199 12.066755,210.999939 15.892473,213.898941 
	C10.363892,214.441360 7.045621,211.117218 4.678591,206.180634 
z"/>
<path fill="#ADC1D4" opacity="1.000000" stroke="none" 
	d="
M15.773051,185.723450 
	C13.382830,187.327377 10.740579,188.726013 7.754381,190.153687 
	C10.113964,188.627869 12.817493,187.073013 15.773051,185.723450 
z"/>
<path fill="#C2CDDB" opacity="1.000000" stroke="none" 
	d="
M35.871613,271.072998 
	C36.044483,271.143066 36.100124,271.322815 36.070805,271.772003 
	C35.730354,271.821106 35.653202,271.534851 35.871613,271.072998 
z"/>
<path fill="#F9FCFC" opacity="1.000000" stroke="none" 
	d="
M72.093025,132.026688 
	C72.606499,131.397308 73.119987,130.767944 74.019577,129.665344 
	C74.755707,131.322159 75.081894,132.576248 75.792152,133.550217 
	C77.435959,135.804321 78.844429,138.617874 81.090874,139.979446 
	C92.538712,146.917999 104.226280,153.460739 115.815254,160.167389 
	C116.505348,160.566742 117.067818,161.186615 117.716583,161.726242 
	C114.828789,164.165634 105.644539,164.782608 102.294434,162.891922 
	C93.122551,157.715591 83.940331,152.557526 74.779060,147.362518 
	C72.850166,146.268692 70.993225,145.047974 69.072342,143.469818 
	C69.041542,143.053909 69.106834,143.065063 69.468910,143.081436 
	C73.268181,140.755020 75.492989,138.066010 72.334030,133.584351 
	C72.166786,132.870224 72.129913,132.448471 72.093025,132.026688 
z"/>
<path fill="#0E1219" opacity="1.000000" stroke="none" 
	d="
M71.787224,131.855530 
	C72.129913,132.448471 72.166786,132.870224 72.221184,133.979858 
	C71.194748,137.466843 70.150787,140.265961 69.106834,143.065063 
	C69.106834,143.065063 69.041542,143.053909 69.047913,143.086395 
	C66.219513,143.671143 63.255856,145.020187 60.580444,144.587387 
	C56.650124,143.951584 53.853516,141.147919 53.333305,136.841583 
	C52.797821,132.408813 54.582981,129.008301 58.539272,127.032051 
	C62.296768,125.155075 65.949829,125.840218 69.110703,128.538528 
	C70.085632,129.370773 70.701263,130.623932 71.787224,131.855530 
z"/>
<path fill="#010102" opacity="1.000000" stroke="none" 
	d="
M57.750000,150.750000 
	C57.466667,150.699997 57.433334,150.400009 57.400002,150.100006 
	C57.599998,150.233337 57.799999,150.366669 57.750000,150.750000 
z"/>
<path fill="#253648" opacity="1.000000" stroke="none" 
	d="
M166.248978,215.103699 
	C170.934662,212.446091 178.282455,212.868301 181.206802,215.551346 
	C177.809769,218.887726 168.837891,218.864807 166.248978,215.103699 
z"/>
<path fill="#253648" opacity="1.000000" stroke="none" 
	d="
M173.848419,206.902618 
	C170.968277,206.293839 166.586823,208.689285 166.507675,204.590286 
	C166.418121,199.952911 171.074936,202.645264 173.561478,201.867523 
	C173.712265,201.820343 173.912354,201.811478 174.053467,201.870667 
	C176.095749,202.727402 178.131836,203.598877 180.169418,204.466812 
	C178.210342,205.277344 176.251266,206.087875 173.848419,206.902618 
z"/>
<path fill="#010102" opacity="1.000000" stroke="none" 
	d="
M352.735016,216.009979 
	C349.473480,216.561310 346.567841,217.200958 343.699890,217.062164 
	C342.718475,217.014679 341.062164,215.028839 341.043274,213.906250 
	C340.982605,210.299744 341.542755,206.682816 341.993103,201.609253 
	C346.321167,202.917847 351.098572,203.083557 353.759399,205.541016 
	C356.220795,207.814331 356.234558,212.525467 352.735016,216.009979 
z"/>
<path fill="#0E1219" opacity="1.000000" stroke="none" 
	d="
M19.009369,210.062241 
	C18.252853,210.000946 17.496340,209.939636 16.197077,209.705200 
	C15.088218,209.403824 14.522105,209.275604 13.955997,209.147369 
	C12.254161,207.334641 10.552320,205.521927 8.767817,203.113312 
	C8.435929,202.012268 8.186705,201.507111 7.937477,201.001968 
	C7.999542,200.553970 8.061609,200.105957 8.271942,199.151001 
	C8.451716,198.066681 8.483225,197.489349 8.514733,196.912003 
	C9.558591,195.435989 10.602448,193.959976 12.144806,192.196411 
	C14.102905,191.292435 15.562505,190.676010 17.022102,190.059601 
	C17.459339,190.117172 17.896578,190.174744 18.881294,190.395615 
	C20.293869,190.689423 21.158970,190.819931 22.024071,190.950439 
	C29.718887,197.624481 29.592999,203.452438 21.057045,209.011200 
	C19.988079,209.445282 19.498726,209.753769 19.009369,210.062241 
z"/>
<path fill="#C2CDDB" opacity="1.000000" stroke="none" 
	d="
M16.832336,189.802490 
	C15.562505,190.676010 14.102905,191.292435 12.294694,191.895325 
	C13.511577,191.102997 15.077071,190.324188 16.832336,189.802490 
z"/>
<path fill="#C2CDDB" opacity="1.000000" stroke="none" 
	d="
M21.980217,190.631622 
	C21.158970,190.819931 20.293869,190.689423 19.203743,190.310059 
	C19.964598,190.145081 20.950480,190.228943 21.980217,190.631622 
z"/>
<path fill="#C2CDDB" opacity="1.000000" stroke="none" 
	d="
M8.257201,196.961212 
	C8.483225,197.489349 8.451716,198.066681 8.179041,198.821396 
	C7.958472,198.335983 7.979070,197.673203 8.257201,196.961212 
z"/>
<path fill="#C2CDDB" opacity="1.000000" stroke="none" 
	d="
M7.709852,201.125931 
	C8.186705,201.507111 8.435929,202.012268 8.593353,202.806305 
	C8.161777,202.480087 7.822001,201.864990 7.709852,201.125931 
z"/>
<path fill="#C2CDDB" opacity="1.000000" stroke="none" 
	d="
M19.155334,210.284927 
	C19.498726,209.753769 19.988079,209.445282 20.772285,209.214966 
	C20.478525,209.697968 19.889912,210.102783 19.155334,210.284927 
z"/>
<path fill="#C2CDDB" opacity="1.000000" stroke="none" 
	d="
M13.981485,209.427521 
	C14.522105,209.275604 15.088218,209.403824 15.824219,209.781311 
	C15.331730,209.922928 14.669354,209.815292 13.981485,209.427521 
z"/>
<path fill="#253648" opacity="1.000000" stroke="none" 
	d="
M255.694794,202.720856 
	C255.331467,204.554108 254.982742,207.152893 254.020111,207.404694 
	C251.361572,208.100113 248.415619,208.082382 245.650711,207.763000 
	C244.759705,207.660080 243.461899,205.728531 243.486099,204.659225 
	C243.507416,203.717056 245.069916,202.079346 246.026871,202.023026 
	C249.142502,201.839584 252.292511,202.239838 255.694794,202.720856 
z"/>
<path fill="#F9FCFC" opacity="1.000000" stroke="none" 
	d="
M119.620911,276.917358 
	C119.080086,280.037384 118.539253,283.157410 117.842300,287.178070 
	C117.127068,285.007477 116.029732,283.295959 116.124397,281.653107 
	C116.381508,277.190643 113.776024,275.190704 110.385773,273.239410 
	C99.047844,266.713806 87.804993,260.021820 76.581444,253.300552 
	C75.381752,252.582108 74.281334,251.392517 73.635887,250.159271 
	C73.191528,249.310257 73.212875,247.682556 73.764961,247.004425 
	C74.270241,246.383774 75.891968,246.173569 76.808380,246.461487 
	C88.973701,250.283859 100.351555,255.536453 110.337471,263.755035 
	C113.381416,266.260254 117.714966,267.173401 121.384033,268.966797 
	C122.064415,269.299347 122.391205,270.355316 122.805069,271.692841 
	C122.296257,272.611053 121.863556,272.913818 121.123512,273.332458 
	C120.696640,273.846069 120.577118,274.243835 120.377403,274.934753 
	C120.071777,275.791107 119.846344,276.354218 119.620911,276.917358 
z"/>
<path fill="#0E1219" opacity="1.000000" stroke="none" 
	d="
M121.430862,273.216553 
	C121.863556,272.913818 122.296257,272.611053 122.823822,272.057434 
	C124.168335,271.381927 125.417992,270.957306 127.232513,270.304626 
	C128.851883,270.057983 129.906387,270.039429 130.960876,270.020874 
	C135.310379,272.699219 139.391312,275.646515 138.166443,281.659058 
	C137.086594,286.959747 132.858444,289.731232 127.471397,289.017395 
	C121.973587,288.288910 119.423729,284.535339 119.726166,277.344055 
	C119.846344,276.354218 120.071777,275.791107 120.688553,274.828552 
	C121.196877,274.024933 121.313866,273.620728 121.430862,273.216553 
z"/>
<path fill="#F9FCFC" opacity="1.000000" stroke="none" 
	d="
M131.169006,269.745422 
	C129.906387,270.039429 128.851883,270.057983 127.405548,270.020081 
	C126.118706,269.361511 125.223694,268.759430 123.251785,267.432861 
	C127.442482,267.432861 130.455032,267.432861 133.467590,267.432861 
	C133.528610,267.690613 133.589615,267.948334 133.650635,268.206085 
	C132.892792,268.627380 132.134964,269.048706 131.169006,269.745422 
z"/>
<path fill="#0E1219" opacity="1.000000" stroke="none" 
	d="
M140.349991,209.939087 
	C139.856155,216.793671 138.128372,218.038376 130.314316,217.612564 
	C125.178764,217.332703 123.127075,215.043945 123.155525,209.626633 
	C123.186707,203.689499 125.113342,201.835052 131.322632,201.765594 
	C138.994827,201.679749 140.011932,202.550812 140.349991,209.939087 
z"/>
<path fill="#253648" opacity="1.000000" stroke="none" 
	d="
M92.692169,201.414047 
	C94.721832,202.376984 96.325043,203.355835 97.928253,204.334686 
	C96.421661,205.739746 95.129395,207.665680 93.346512,208.399307 
	C91.656830,209.094589 89.246017,209.056122 87.540443,208.372330 
	C86.171112,207.823334 84.817810,205.921844 84.565041,204.432526 
	C84.430832,203.641800 86.505699,202.075699 87.852882,201.549118 
	C89.142342,201.045074 90.780701,201.433685 92.692169,201.414047 
z"/>
<path fill="#0E1219" opacity="1.000000" stroke="none" 
	d="
M41.203182,270.376709 
	C41.420433,266.022797 43.318264,263.306824 47.690174,262.220245 
	C48.843067,262.157471 49.662659,262.243835 50.484386,262.276611 
	C56.565445,262.519196 59.995106,265.710938 60.219833,271.350677 
	C60.415905,276.271179 56.416431,280.746155 51.484993,281.123932 
	C46.334660,281.518524 42.170097,277.855438 41.397980,272.236664 
	C41.330276,271.744019 41.349007,271.239441 41.203182,270.376709 
z"/>
<path fill="#0E1219" opacity="1.000000" stroke="none" 
	d="
M153.409363,144.284912 
	C153.149902,144.474915 152.767456,144.607819 152.648926,144.863220 
	C149.566742,151.504883 144.710526,153.911469 139.393768,151.402435 
	C134.442413,149.065826 133.235306,143.553772 136.356354,136.777893 
	C136.431686,136.367294 136.447540,136.320190 136.751678,136.327744 
	C137.206711,135.986618 137.357605,135.637939 137.649124,135.279053 
	C137.789734,135.268845 137.924591,135.021210 138.336182,135.023560 
	C142.988098,132.811508 146.832397,134.177307 150.618912,136.339813 
	C150.648819,136.343842 150.657410,136.403580 150.641876,136.749481 
	C151.573380,138.606628 152.520432,140.117859 153.394470,141.891815 
	C153.350769,142.864685 153.380066,143.574799 153.409363,144.284912 
z"/>
<path fill="#F9FCFC" opacity="1.000000" stroke="none" 
	d="
M153.595886,144.670624 
	C153.380066,143.574799 153.350769,142.864685 153.565094,141.508041 
	C152.758270,139.375534 151.707840,137.889557 150.657410,136.403580 
	C150.657410,136.403580 150.648819,136.343842 150.723816,136.004059 
	C150.771561,135.199326 150.744308,134.734360 150.876343,134.123749 
	C151.035629,133.978104 151.361267,133.694717 151.361267,133.694717 
	C157.407928,136.775070 158.146927,147.789673 152.647247,152.862106 
	C147.611908,157.506271 147.611908,157.506271 146.482040,163.577118 
	C143.965195,163.577118 141.383347,163.577118 138.796173,163.577118 
	C137.901306,159.856537 137.021637,156.199081 136.042297,152.127274 
	C140.648468,153.569794 146.071716,155.790497 150.597702,151.442352 
	C152.213242,149.890289 152.752106,147.217529 153.595886,144.670624 
z"/>
<path fill="#F9FCFC" opacity="1.000000" stroke="none" 
	d="
M137.924591,135.021210 
	C137.924591,135.021210 137.789734,135.268845 137.348022,135.287033 
	C136.753387,135.643539 136.600464,135.981873 136.447540,136.320190 
	C136.447540,136.320190 136.431686,136.367294 136.409607,136.377472 
	C135.926910,136.330948 135.466293,136.274261 134.497589,136.091705 
	C133.989517,135.965866 133.697647,135.651352 133.697647,135.651352 
	C137.563004,129.001831 145.380920,127.814621 151.241257,133.350067 
	C151.361267,133.694717 151.035629,133.978104 150.528519,134.015289 
	C145.861725,132.784363 141.552994,129.655167 137.924591,135.021210 
z"/>
<path fill="#F9FCFC" opacity="1.000000" stroke="none" 
	d="
M134.145767,136.112869 
	C133.795563,140.933502 133.289108,145.607132 132.840118,149.750397 
	C129.892303,146.830414 129.680176,140.769455 133.348816,135.795090 
	C133.697647,135.651352 133.989517,135.965866 134.145767,136.112869 
z"/>
<path fill="#C2CDDB" opacity="1.000000" stroke="none" 
	d="
M69.468910,143.081436 
	C70.150787,140.265961 71.194748,137.466843 72.351547,134.272217 
	C75.492989,138.066010 73.268181,140.755020 69.468910,143.081436 
z"/>
<path fill="#C2CDDB" opacity="1.000000" stroke="none" 
	d="
M121.123505,273.332458 
	C121.313866,273.620728 121.196877,274.024933 120.768738,274.535339 
	C120.577118,274.243835 120.696640,273.846069 121.123505,273.332458 
z"/>
<path fill="#ADC1D4" opacity="1.000000" stroke="none" 
	d="
M138.336182,135.023560 
	C141.552994,129.655167 145.861725,132.784363 150.369232,134.160934 
	C150.744308,134.734360 150.771561,135.199326 150.693909,136.000046 
	C146.832397,134.177307 142.988098,132.811508 138.336182,135.023560 
z"/>
<path fill="#ADC1D4" opacity="1.000000" stroke="none" 
	d="
M150.641876,136.749481 
	C151.707840,137.889557 152.758270,139.375534 153.638092,141.245300 
	C152.520432,140.117859 151.573380,138.606628 150.641876,136.749481 
z"/>
<path fill="#ADC1D4" opacity="1.000000" stroke="none" 
	d="
M136.751678,136.327744 
	C136.600464,135.981873 136.753387,135.643539 137.207413,135.297241 
	C137.357605,135.637939 137.206711,135.986618 136.751678,136.327744 
z"/>
</svg>